<?xml version="1.0" encoding="UTF-8"?>
<svg id="Layer_2" data-name="Layer 2" xmlns="http://www.w3.org/2000/svg" viewBox="0 0 288 288">
  <path d="M86.58,62.71c5.52-8.5,11.23-16.92,17.76-24.71,2.87-3.12,5.68-7.08,9.85-8.79,4.61-.94,3.45,5.14,2.76,7.71-4.27,16.49-12.44,31.48-18.89,47.09-2.14,5.38-5.78,13.37-7.42,18.79,0-.03,0,0,0-.22-.11-.05.28-.53-.9-1.63-1.92-1.01-2.37.03-2.47-.12-.21.14-.22.17-.24.18,1.5-2.08,2.86-4.67,4.2-7,11.38-20.77,21.9-41.88,34.82-61.86,1.87-2.87,3.8-5.7,5.97-8.47,2.04-2.32,3.82-5.23,7.22-6.2,2.81-.56,4.83,1.61,5.01,4.29.25,3.88-.74,7.37-1.58,11.03-.85,3.4-1.9,6.7-3.04,9.94-4.61,12.95-10.47,25.21-16.45,37.34-2.9,6.14-7.21,13.94-9.57,20.16,0,0-.12.41-.12.41-.03.09-.04.2-.03.05.07-.43-.22-1.41-.89-2.01-.54-.53-1.33-.74-1.76-.76-.69-.02-.88.07-1.31.27,3.51-3.03,6.06-6.93,8.8-10.8,7.49-11.08,14.42-22.68,21.43-34.12,5.28-8.65,10.5-17.36,16.07-25.85,1.97-2.92,3.78-5.73,6.19-8.43.68-.7,1.42-1.52,2.52-1.87.69-.25,1.8-.12,2.39.43,2.29,1.86.12,7.22-.49,9.58-9.4,25.54-27.99,46.4-38.79,71.18-2.19,5.63-5.19,12.79-.82,18.01,4.47,5.34,11.76-2.36,15.34-5.66,2.36-2.35,4.57-4.86,6.72-7.43,21.24-26.13,38.89-54.95,57-83.31.5-.79,1.55-1.03,2.34-.53.72.46.98,1.37.65,2.13-3.17,7.47-6.49,14.84-9.81,22.22-16.56,36.64-33.77,73.77-51.46,109.82-7.17,14.54-14.25,29.15-22.3,43.25-9.99,17.68-20.91,34.62-31.22,51.99-2.49,4.29-4.97,8.49-6.89,12.93-.39.95-.73,1.82-.84,2.6,0,.02,0,.05,0,.06.01-.05,0-.1,0-.14-.08-1.03-1.25-2.09-2.2-2.17-.4-.03-.39-.02-.45,0,.34-.13.71-.24,1.17-.5,22.59-14.07,52.65-43.88,66.07-66.93,1.92-3.4,3.6-6.9,4.75-10.44,1.38-4.06,7.35-2.78,7.04,1.41-.62,7.65-2.27,14.65-3.98,21.69-5.27,20.91-12.18,41.32-19.44,61.59-.57,1.68-2.42,2.57-4.08,1.97-1.46-.53-2.3-2.01-2.06-3.49,2.67-15.91,7.94-30.89,13.25-45.95,3.86-10.71,8.38-22.58,12.51-33.25,1.32-3.5,2.7-7.34,4.88-10.53,7.26-11.06,20.93-9.73,29.21-.76,6.33,7.1,4.12,11.75-2.78,17.17-6.31,5.01-13.24,8.88-20.25,12.7-6.98,3.74-14.08,7.23-21.3,10.47-.46.22-1.02.02-1.22-.44-.17-.38-.06-.82.25-1.07,7.38-6.07,14.92-12.1,20.46-19.96.25-.37.82.03.58.39-2.63,4.06-5.79,7.77-9.21,11.19-3.41,3.43-7.05,6.6-10.66,9.77,0,0-.97-1.52-.97-1.52,7.06-3.46,14-7.17,20.79-11.11,4.45-2.74,26.9-15.36,24.26-20.8-2.44-6.18-10.44-10.67-16.91-9.62-7.51,1.35-10.34,9-12.6,15.78-3.84,10.73-8.1,22.71-11.77,33.42-4.92,14.72-9.84,29.78-12.22,45.04,0,0-6.14-1.53-6.14-1.53,6.94-20.14,13.44-40.48,18.53-61.15,1.63-6.83,3.16-13.82,3.64-20.42,0,0,7.08,1.29,7.08,1.29-1.34,4.2-3.19,8.06-5.23,11.74-10.31,17.94-24.67,33.02-39.66,47.05-7.54,6.91-15.43,13.6-23.93,19.41-2.4,1.57-4.61,3.2-7.41,4.23-.31.13-.81.24-1.22.34-.56.08-1.05.18-1.96.07-1.52-.15-3.33-1.45-3.79-3.03-1.08-3.65,1.12-7.21,2.53-10.33,11.61-21.41,25.73-41.33,37.68-62.44,8.11-13.9,15.2-28.37,22.52-42.71,21.61-43.32,43.43-86.66,63.67-130.64,0,0,2.99,1.6,2.99,1.6-18.78,28.04-36.88,56.65-58.22,82.85-4.55,5.06-14.84,18.11-22.46,15.33-2.04-.84-3.47-2.64-4.44-4.51-2.98-5.73-.18-12.51,1.87-18.01,3.89-9.43,9.11-18.23,14.2-27,6.71-11.61,13.83-23.12,19.4-35.28,2.1-4.68,4.34-10.45,4.73-14.98.27.76,1.34,1.24,2.08.91-2.35,2.34-4.39,5.82-6.32,8.78-5.33,8.55-10.31,17.33-15.37,26.07-6.77,11.68-13.41,23.42-20.95,34.82-2.64,3.91-5.47,8.09-8.97,11.47-1.44,1.5-3.87,2.82-5.89,1.01-2.24-2.26-.51-5.21.34-7.52,5.51-12.17,12.04-24.42,17.47-36.57,2.77-6.09,5.4-12.23,7.63-18.45,1.98-5.92,4.22-12.06,4.42-18.27,0-.23-.12-.32.09.04.41.63,1.33,1.1,2.1.91.34-.1.11-.03-.03.08-1.37,1.02-2.5,2.45-3.72,3.94-10.03,13.28-18.15,27.99-26.43,42.51-5.52,9.86-13.2,24.45-19.36,33.73-.26.34-.59.77-1.15,1.14-.18-.09-.76,1.02-2.76-.06-1.25-1.17-.88-1.77-.99-1.92-.03-.63.14-1.08.24-1.49.41-1.65,1.32-3.42,1.87-4.97,4.57-10.88,9.57-21.75,14.76-32.3,2.95-6.06,5.77-12.11,8.17-18.34,1.2-3.1,2.32-6.3,3.28-9.43.37-1.41.85-3.07.7-4.42-.03-.27-.14-.4-.04-.3.14.05.06-.01-.2.05-.51.12-1.21.53-1.84.97-5.18,3.95-9.48,9.4-13.64,14.47-4.2,5.25-8.25,10.64-12.17,16.12-.24.38-.83-.03-.58-.39h0Z"/>
</svg>
